<svg xmlns="http://www.w3.org/2000/svg" xmlns:xlink="http://www.w3.org/1999/xlink" viewBox="0 0 201.915 211.385">
  <defs>
    <style>
      .cls-1 {
        opacity: 0.49;
        fill: url(#radial-gradient);
      }

      .cls-12, .cls-2 {
        isolation: isolate;
      }

      .cls-3 {
        fill: #35b0c3;
      }

      .cls-4 {
        fill: #a2f4e6;
      }

      .cls-5 {
        fill: #33a9b5;
      }

      .cls-6 {
        fill: #48d1d8;
      }

      .cls-7 {
        fill: #a6fff2;
      }

      .cls-8 {
        fill: #39bcd1;
      }

      .cls-9 {
        fill: url(#linear-gradient);
      }

      .cls-10 {
        fill: url(#linear-gradient-2);
      }

      .cls-11 {
        fill: #9cf0e3;
      }

      .cls-12 {
        fill: url(#linear-gradient-3);
      }
    </style>
    <radialGradient id="radial-gradient" cx="120.637" cy="-376.713" r="100.718" gradientTransform="matrix(0.009, 1, -0.353, 0.027, -33.442, 65.176)" gradientUnits="userSpaceOnUse">
      <stop offset="0.003" stop-opacity="0.5"/>
      <stop offset="0.855" stop-opacity="0"/>
    </radialGradient>
    <linearGradient id="linear-gradient" x1="106.536" y1="35.255" x2="108.642" y2="14.223" gradientUnits="userSpaceOnUse">
      <stop offset="0" stop-color="#46c9cf"/>
      <stop offset="1" stop-color="#a6fff2"/>
    </linearGradient>
    <linearGradient id="linear-gradient-2" x1="108.324" y1="24.816" x2="114.317" y2="24.816" xlink:href="#linear-gradient"/>
    <linearGradient id="linear-gradient-3" x1="65.273" y1="44.474" x2="201.915" y2="44.474" gradientUnits="userSpaceOnUse">
      <stop offset="0.128" stop-color="#3fa8ad"/>
      <stop offset="0.327" stop-color="#46c9cf"/>
      <stop offset="1" stop-color="#48d1d8"/>
    </linearGradient>
  </defs>
  <g id="Layer_2" data-name="Layer 2">
    <g id="Layer_1-2" data-name="Layer 1">
      <g>
        <ellipse class="cls-1" cx="100.745" cy="175.788" rx="35.586" ry="100.749" transform="translate(-75.982 274.878) rotate(-89.462)"/>
        <g class="cls-2">
          <polygon class="cls-3" points="112.072 19.476 98.755 18.923 98.678 12.701 111.994 13.254 112.072 19.476"/>
          <polygon class="cls-4" points="111.994 13.254 98.678 12.701 100.471 0 118.63 0.553 111.994 13.254"/>
          <polygon class="cls-5" points="118.63 0.553 117.508 18.101 112.072 19.476 111.994 13.254 118.63 0.553"/>
        </g>
        <g class="cls-2">
          <polygon class="cls-6" points="101.282 45.338 79.923 43.921 78.628 18.058 100.745 18.92 101.282 45.338"/>
          <polygon class="cls-7" points="100.745 18.92 78.628 18.058 95.648 3.391 112.657 3.782 100.745 18.92"/>
          <path class="cls-8" d="M112.657,3.782l.022,5.243.022,5.17.021,5.1.02,5.031-11.46,21.013-.537-26.418Z"/>
        </g>
        <path class="cls-9" d="M111.148,14.4l-2.879-.22a1.156,1.156,0,0,0-.871.4c-1.639,1.583-2.94,7.4-2.9,13,.03,4.565.94,7.569,2.164,7.662l2.879.22c-1.224-.094-2.134-3.1-2.164-7.662-.036-5.6,1.265-11.416,2.9-13A1.153,1.153,0,0,1,111.148,14.4Z"/>
        <path class="cls-6" d="M110.277,14.793c1.639-1.583,3,1.669,3.033,7.266s-1.262,11.414-2.9,13-3-1.666-3.036-7.263S108.638,16.376,110.277,14.793Z"/>
        <path class="cls-10" d="M114.317,16.229l-2.879-.22a.953.953,0,0,0-.719.329c-1.353,1.307-2.424,6.113-2.394,10.734.024,3.77.774,6.255,1.785,6.332l2.879.22c-1.011-.077-1.761-2.562-1.785-6.333-.03-4.62,1.041-9.427,2.394-10.734A.955.955,0,0,1,114.317,16.229Z"/>
        <path class="cls-6" d="M113.6,16.557c1.353-1.306,2.476,1.382,2.506,6s-1.044,9.429-2.4,10.736-2.473-1.384-2.5-6S112.245,17.864,113.6,16.557Z"/>
        <g class="cls-2">
          <polygon class="cls-6" points="186.154 35.024 112.944 31.242 112.599 21.637 185.808 25.42 186.154 35.024"/>
          <polygon class="cls-7" points="185.808 25.42 112.599 21.637 114.709 18.101 187.918 21.884 185.808 25.42"/>
          <polygon class="cls-11" points="187.918 21.884 188.264 31.489 186.154 35.024 185.808 25.42 187.918 21.884"/>
        </g>
        <path class="cls-12" d="M201.915,22.669,201.182,40.7c-.045.093-.092.187-.141.281s-.1.187-.151.281-.107.188-.163.282-.114.188-.173.281a19.818,19.818,0,0,1-5.194,5.191,50.806,50.806,0,0,1-9.1,5.072,107.267,107.267,0,0,1-13.055,4.719c-5.057,1.5-10.7,2.873-16.874,4.085-6.624,1.3-13.682,2.382-21.033,3.227-7.435.855-15.116,1.463-22.89,1.812-7.8.35-15.645.437-23.361.255-7.689-.182-15.2-.63-22.366-1.344l-1.41-21.269c7.285.606,14.917.983,22.736,1.131,7.847.148,15.823.064,23.764-.248,7.908-.31,15.723-.843,23.287-1.588,7.476-.737,14.653-1.677,21.388-2.8,6.273-1.05,12.007-2.238,17.143-3.535a121.711,121.711,0,0,0,13.244-4.072,54.6,54.6,0,0,0,9.212-4.365,18.659,18.659,0,0,0,5.238-4.457c.06-.08.118-.161.174-.241s.111-.161.163-.242.1-.161.152-.241S201.87,22.749,201.915,22.669Z"/>
        <path class="cls-7" d="M73.42,38.506c5.927.467,12.114.756,18.437.867,6.342.112,12.781.044,19.2-.2,6.392-.242,12.719-.657,18.861-1.236,6.084-.575,11.95-1.308,17.485-2.191,5.173-.825,9.934-1.76,14.234-2.785a112.954,112.954,0,0,0,11.249-3.245,53.357,53.357,0,0,0,8.1-3.526,19.3,19.3,0,0,0,4.91-3.653c.061-.067.12-.133.178-.2s.114-.134.168-.2.108-.134.159-.2.1-.134.15-.2l15.373.933c-.045.08-.092.161-.141.241s-.1.161-.152.241-.107.161-.163.242-.114.161-.174.241a18.659,18.659,0,0,1-5.238,4.457,54.6,54.6,0,0,1-9.212,4.365,121.711,121.711,0,0,1-13.244,4.072c-5.136,1.3-10.87,2.485-17.143,3.535-6.735,1.128-13.912,2.068-21.388,2.805-7.564.745-15.379,1.278-23.287,1.588-7.941.312-15.917.4-23.764.248-7.819-.148-15.451-.525-22.736-1.131Z"/>
        <g class="cls-2">
          <path class="cls-7" d="M101.638,133.449,78.474,131a5.7,5.7,0,0,0,3.49-.839,13.07,13.07,0,0,0,3.415-3.059,32.514,32.514,0,0,0,3.312-5.018,68.149,68.149,0,0,0,3.193-6.77L111.9,117.3q-1.26,3.9-2.519,6.891a38.181,38.181,0,0,1-2.562,5.138,12.534,12.534,0,0,1-2.589,3.172A3.523,3.523,0,0,1,101.638,133.449Z"/>
          <path class="cls-6" d="M97.229,161.561,73.451,158.8a6.672,6.672,0,0,1-1.756-.458,8.676,8.676,0,0,1-1.768-.99,12.694,12.694,0,0,1-1.776-1.559,19.76,19.76,0,0,1-1.779-2.166c-2.315-3.235-4.511-7.961-6.545-14.154a180.918,180.918,0,0,1-5.819-24.314c-1.8-10.142-3.336-21.917-4.536-35.191-1.251-13.839-2.131-29.184-2.578-45.8L80.78,36.553c-.091,16.782.17,32.268.745,46.218.551,13.373,1.385,25.218,2.462,35.4a231.581,231.581,0,0,0,3.683,24.348,60.671,60.671,0,0,0,4.472,14.056A18.166,18.166,0,0,0,93.4,158.7a10.016,10.016,0,0,0,1.27,1.513,5.618,5.618,0,0,0,1.278.94A3.677,3.677,0,0,0,97.229,161.561Z"/>
          <polygon class="cls-7" points="80.78 36.553 46.894 34.171 57.115 23.227 88.628 25.303 80.78 36.553"/>
          <path class="cls-8" d="M88.628,25.3c-.171,13.332-.081,25.771.247,37.125.318,10.98.855,20.867,1.587,29.534.7,8.335,1.584,15.5,2.616,21.417a77.607,77.607,0,0,0,3.355,13.474c1.187,3.155,2.455,5.139,3.776,6.041a3.069,3.069,0,0,0,3.921-.311,16.309,16.309,0,0,0,3.924-5.491A71.175,71.175,0,0,0,111.9,117.3l-.8,20.862a114.613,114.613,0,0,1-4.537,12.757,32.73,32.73,0,0,1-4.734,8.172c-1.643,1.888-3.271,2.734-4.855,2.426-1.668-.323-3.291-1.926-4.832-4.944a60.671,60.671,0,0,1-4.472-14.056,231.581,231.581,0,0,1-3.683-24.348c-1.077-10.184-1.911-22.029-2.462-35.4-.575-13.95-.836-29.436-.745-46.218Z"/>
        </g>
      </g>
    </g>
  </g>
</svg>
